# xmcd
#
# Track frame offsets:
# 150
# 12189
# 25199
# 35080
# 50949
# 64817
# 80501
# 97424
# 113148
# 129058
# 139370
# 154136
# 174885
# 189662
#
# Disc length: 2701 seconds
#
#
# Revision: 0
# Processed by: cddbd v1.5.1PL2 Copyright (c) Steve Scherf et al.
# Submitted via: FreeRIP 2.941 
#
DISCID=c20a8b0e
DTITLE=camponês - o melhor de,
DYEAR=1900
DGENRE=sertanejo popular
TTITLE0=forrofiar
TTITLE1=machucando
TTITLE2=é noite de são joão
TTITLE3=a mulher é um peixão
TTITLE4=forró apimentado
TTITLE5=esse barco vira
TTITLE6=xote fulero
TTITLE7=forró rasgado
TTITLE8=ex-noiva
TTITLE9=o cheiro da menina
TTITLE10=o pau vai quebrar
TTITLE11=gabiraba
TTITLE12=viúva caridosa
TTITLE13=cerol na mão
EXTD=by danielsan
EXTT0=
EXTT1=
EXTT2=
EXTT3=
EXTT4=
EXTT5=
EXTT6=
EXTT7=
EXTT8=
EXTT9=
EXTT10=
EXTT11=
EXTT12=
EXTT13=
PLAYORDER=
